<svg xmlns="http://www.w3.org/2000/svg" viewBox="0 0 64 64">
  <rect width="64" height="64" rx="14" fill="#223862"/>
  <g fill="#ffffff" transform="translate(4.503 20.105) scale(0.11378)"><path transform="translate(0.971782 155.536374)" d="M 12.1875 0 L 12.1875 -101.59375 L 35.265625 -101.59375 L 35.265625 -62.5625 L 43.984375 -62.5625 C 49.691406 -62.5625 53.875 -63.476562 56.53125 -65.3125 C 59.195312 -67.15625 61.398438 -70.445312 63.140625 -75.1875 L 72.71875 -101.59375 L 97.671875 -101.59375 L 83.59375 -65.453125 C 82.34375 -62.171875 80.914062 -59.222656 79.3125 -56.609375 C 77.71875 -53.992188 75.90625 -51.71875 73.875 -49.78125 L 101.3125 0 L 74.453125 0 L 52.6875 -41.21875 C 51.8125 -41.125 50.960938 -41.078125 50.140625 -41.078125 C 49.316406 -41.078125 48.425781 -41.078125 47.46875 -41.078125 L 35.265625 -41.078125 L 35.265625 0 Z M 12.1875 0 "></path><path transform="translate(106.486322 155.536374)" d="M 12.1875 0 L 12.1875 -101.59375 L 55.59375 -101.59375 C 63.332031 -101.59375 70.054688 -100.191406 75.765625 -97.390625 C 81.472656 -94.585938 85.875 -90.570312 88.96875 -85.34375 C 92.0625 -80.113281 93.609375 -73.875 93.609375 -66.625 C 93.609375 -59.164062 91.914062 -52.75 88.53125 -47.375 C 85.144531 -42.007812 80.40625 -37.972656 74.3125 -35.265625 L 95.359375 0 L 68.65625 0 L 50.515625 -31.640625 L 35.265625 -31.640625 L 35.265625 0 Z M 34.984375 -51.09375 L 52.546875 -51.09375 C 58.253906 -51.09375 62.628906 -52.421875 65.671875 -55.078125 C 68.722656 -57.742188 70.25 -61.539062 70.25 -66.46875 C 70.25 -71.40625 68.722656 -75.203125 65.671875 -77.859375 C 62.628906 -80.523438 58.253906 -81.859375 52.546875 -81.859375 L 34.984375 -81.859375 Z M 34.984375 -51.09375 "></path><path transform="translate(208.662719 155.536374)" d="M 12.1875 0 L 12.1875 -101.59375 L 35.265625 -101.59375 L 35.265625 0 Z M 12.1875 0 "></path><path transform="translate(256.122497 155.536374)" d="M 40.34375 0 L 1.3125 -101.59375 L 26.125 -101.59375 L 39.625 -65.453125 L 51.8125 -33.234375 L 77.359375 -101.59375 L 102.03125 -101.59375 L 62.984375 0 Z M 40.34375 0 "></path><path transform="translate(355.250883 155.536374)" d="M 60.375 2.03125 C 49.832031 2.03125 40.472656 -0.21875 32.296875 -4.71875 C 24.117188 -9.21875 17.726562 -15.429688 13.125 -23.359375 C 8.53125 -31.296875 6.234375 -40.441406 6.234375 -50.796875 C 6.234375 -61.148438 8.53125 -70.289062 13.125 -78.21875 C 17.726562 -86.15625 24.117188 -92.375 32.296875 -96.875 C 40.472656 -101.375 49.832031 -103.625 60.375 -103.625 C 71.019531 -103.625 80.40625 -101.375 88.53125 -96.875 C 96.664062 -92.375 103.050781 -86.15625 107.6875 -78.21875 C 112.332031 -70.289062 114.65625 -61.148438 114.65625 -50.796875 C 114.65625 -40.441406 112.332031 -31.296875 107.6875 -23.359375 C 103.050781 -15.429688 96.664062 -9.21875 88.53125 -4.71875 C 80.40625 -0.21875 71.019531 2.03125 60.375 2.03125 Z M 29.75 -50.796875 C 29.75 -44.703125 31.054688 -39.332031 33.671875 -34.6875 C 36.285156 -30.039062 39.890625 -26.410156 44.484375 -23.796875 C 49.078125 -21.191406 54.375 -19.890625 60.375 -19.890625 C 66.46875 -19.890625 71.8125 -21.191406 76.40625 -23.796875 C 81.007812 -26.410156 84.59375 -30.039062 87.15625 -34.6875 C 89.71875 -39.332031 91 -44.703125 91 -50.796875 C 91 -56.890625 89.71875 -62.257812 87.15625 -66.90625 C 84.59375 -71.550781 81.007812 -75.179688 76.40625 -77.796875 C 71.8125 -80.410156 66.46875 -81.71875 60.375 -81.71875 C 54.375 -81.71875 49.078125 -80.410156 44.484375 -77.796875 C 39.890625 -75.179688 36.285156 -71.550781 33.671875 -66.90625 C 31.054688 -62.257812 29.75 -56.890625 29.75 -50.796875 Z M 29.75 -50.796875 "></path></g>
</svg>
